<mxfile host="app.diagrams.net" agent="Mozilla/5.0 (X11; Linux x86_64) AppleWebKit/537.36 (KHTML, like Gecko) Chrome/134.0.0.0 Safari/537.36" version="27.0.8">
  <diagram name="Página-1" id="acqMLWRM7bVmYmHAPoH-">
    <mxGraphModel dx="1133" dy="661" grid="1" gridSize="10" guides="1" tooltips="1" connect="1" arrows="1" fold="1" page="1" pageScale="1" pageWidth="827" pageHeight="1169" math="0" shadow="0">
      <root>
        <mxCell id="0" />
        <mxCell id="1" parent="0" />
        <mxCell id="6EcvWxfQoZ9j1ZxBPdn7-1" value="Usuário" style="shape=umlActor;verticalLabelPosition=bottom;verticalAlign=top;html=1;outlineConnect=0;" vertex="1" parent="1">
          <mxGeometry x="270" y="270" width="30" height="60" as="geometry" />
        </mxCell>
        <mxCell id="6EcvWxfQoZ9j1ZxBPdn7-2" value="&amp;nbsp;API Financeira&lt;div&gt;&lt;br&gt;&lt;/div&gt;" style="shape=umlActor;verticalLabelPosition=bottom;verticalAlign=top;html=1;outlineConnect=0;" vertex="1" parent="1">
          <mxGeometry x="620" y="140" width="30" height="60" as="geometry" />
        </mxCell>
        <mxCell id="6EcvWxfQoZ9j1ZxBPdn7-6" value="Sistema de IA&lt;div&gt;&lt;br&gt;&lt;/div&gt;" style="shape=umlActor;verticalLabelPosition=bottom;verticalAlign=top;html=1;outlineConnect=0;" vertex="1" parent="1">
          <mxGeometry x="620" y="400" width="30" height="60" as="geometry" />
        </mxCell>
        <mxCell id="6EcvWxfQoZ9j1ZxBPdn7-7" value="Cadastrar e autenticar usuário&amp;nbsp;" style="ellipse;whiteSpace=wrap;html=1;" vertex="1" parent="1">
          <mxGeometry x="390" y="70" width="100" height="70" as="geometry" />
        </mxCell>
        <mxCell id="6EcvWxfQoZ9j1ZxBPdn7-10" value="Consultar indicadores fundamentalistas" style="ellipse;whiteSpace=wrap;html=1;" vertex="1" parent="1">
          <mxGeometry x="390" y="170" width="100" height="70" as="geometry" />
        </mxCell>
        <mxCell id="6EcvWxfQoZ9j1ZxBPdn7-11" value="Exportar carteira em PDF ou Excel&amp;nbsp;" style="ellipse;whiteSpace=wrap;html=1;" vertex="1" parent="1">
          <mxGeometry x="390" y="270" width="100" height="70" as="geometry" />
        </mxCell>
        <mxCell id="6EcvWxfQoZ9j1ZxBPdn7-12" value="&amp;nbsp;Configurar e receber alertas&amp;nbsp;" style="ellipse;whiteSpace=wrap;html=1;" vertex="1" parent="1">
          <mxGeometry x="80" y="360" width="100" height="70" as="geometry" />
        </mxCell>
        <mxCell id="6EcvWxfQoZ9j1ZxBPdn7-13" value="Prever valorização com IA" style="ellipse;whiteSpace=wrap;html=1;" vertex="1" parent="1">
          <mxGeometry x="390" y="470" width="100" height="70" as="geometry" />
        </mxCell>
        <mxCell id="6EcvWxfQoZ9j1ZxBPdn7-14" value="Adicionar/remover ativo à carteira&amp;nbsp;" style="ellipse;whiteSpace=wrap;html=1;" vertex="1" parent="1">
          <mxGeometry x="80" y="170" width="100" height="70" as="geometry" />
        </mxCell>
        <mxCell id="6EcvWxfQoZ9j1ZxBPdn7-15" value="Calcular preço teto (Graham, BasIn)" style="ellipse;whiteSpace=wrap;html=1;" vertex="1" parent="1">
          <mxGeometry x="80" y="265" width="100" height="70" as="geometry" />
        </mxCell>
        <mxCell id="6EcvWxfQoZ9j1ZxBPdn7-16" value="Visualizar projeções gráficas&amp;nbsp;" style="ellipse;whiteSpace=wrap;html=1;" vertex="1" parent="1">
          <mxGeometry x="390" y="360" width="100" height="70" as="geometry" />
        </mxCell>
        <mxCell id="6EcvWxfQoZ9j1ZxBPdn7-17" value="Visualizar carteira de investimentos&amp;nbsp;" style="ellipse;whiteSpace=wrap;html=1;" vertex="1" parent="1">
          <mxGeometry x="80" y="70" width="100" height="70" as="geometry" />
        </mxCell>
        <mxCell id="6EcvWxfQoZ9j1ZxBPdn7-19" value="" style="endArrow=none;html=1;rounded=0;entryX=0;entryY=0.5;entryDx=0;entryDy=0;" edge="1" parent="1" source="6EcvWxfQoZ9j1ZxBPdn7-1" target="6EcvWxfQoZ9j1ZxBPdn7-7">
          <mxGeometry width="50" height="50" relative="1" as="geometry">
            <mxPoint x="300" y="140" as="sourcePoint" />
            <mxPoint x="560" y="370" as="targetPoint" />
          </mxGeometry>
        </mxCell>
        <mxCell id="6EcvWxfQoZ9j1ZxBPdn7-20" value="" style="endArrow=none;html=1;rounded=0;entryX=0;entryY=0.5;entryDx=0;entryDy=0;" edge="1" parent="1" source="6EcvWxfQoZ9j1ZxBPdn7-1" target="6EcvWxfQoZ9j1ZxBPdn7-10">
          <mxGeometry width="50" height="50" relative="1" as="geometry">
            <mxPoint x="280" y="270" as="sourcePoint" />
            <mxPoint x="330" y="220" as="targetPoint" />
          </mxGeometry>
        </mxCell>
        <mxCell id="6EcvWxfQoZ9j1ZxBPdn7-22" value="" style="endArrow=none;html=1;rounded=0;exitX=1;exitY=0.5;exitDx=0;exitDy=0;" edge="1" parent="1" source="6EcvWxfQoZ9j1ZxBPdn7-10" target="6EcvWxfQoZ9j1ZxBPdn7-2">
          <mxGeometry width="50" height="50" relative="1" as="geometry">
            <mxPoint x="550" y="250" as="sourcePoint" />
            <mxPoint x="600" y="200" as="targetPoint" />
          </mxGeometry>
        </mxCell>
        <mxCell id="6EcvWxfQoZ9j1ZxBPdn7-23" value="" style="endArrow=none;html=1;rounded=0;" edge="1" parent="1" source="6EcvWxfQoZ9j1ZxBPdn7-1">
          <mxGeometry width="50" height="50" relative="1" as="geometry">
            <mxPoint x="330" y="360" as="sourcePoint" />
            <mxPoint x="180" y="300" as="targetPoint" />
          </mxGeometry>
        </mxCell>
        <mxCell id="6EcvWxfQoZ9j1ZxBPdn7-27" value="Editar perfil de investimento&amp;nbsp;" style="ellipse;whiteSpace=wrap;html=1;" vertex="1" parent="1">
          <mxGeometry x="80" y="460" width="100" height="70" as="geometry" />
        </mxCell>
        <mxCell id="6EcvWxfQoZ9j1ZxBPdn7-29" value="Analisar relatórios (RI)" style="ellipse;whiteSpace=wrap;html=1;" vertex="1" parent="1">
          <mxGeometry x="585" y="270" width="100" height="70" as="geometry" />
        </mxCell>
        <mxCell id="6EcvWxfQoZ9j1ZxBPdn7-30" value="" style="endArrow=none;html=1;rounded=0;exitX=0.937;exitY=0.688;exitDx=0;exitDy=0;exitPerimeter=0;" edge="1" parent="1" source="6EcvWxfQoZ9j1ZxBPdn7-17" target="6EcvWxfQoZ9j1ZxBPdn7-1">
          <mxGeometry width="50" height="50" relative="1" as="geometry">
            <mxPoint x="200" y="140" as="sourcePoint" />
            <mxPoint x="250" y="90" as="targetPoint" />
          </mxGeometry>
        </mxCell>
        <mxCell id="6EcvWxfQoZ9j1ZxBPdn7-31" value="" style="endArrow=none;html=1;rounded=0;entryX=0.97;entryY=0.629;entryDx=0;entryDy=0;entryPerimeter=0;" edge="1" parent="1" target="6EcvWxfQoZ9j1ZxBPdn7-14">
          <mxGeometry width="50" height="50" relative="1" as="geometry">
            <mxPoint x="260" y="280" as="sourcePoint" />
            <mxPoint x="210" y="230" as="targetPoint" />
          </mxGeometry>
        </mxCell>
        <mxCell id="6EcvWxfQoZ9j1ZxBPdn7-32" value="" style="endArrow=none;html=1;rounded=0;exitX=1;exitY=0;exitDx=0;exitDy=0;" edge="1" parent="1" source="6EcvWxfQoZ9j1ZxBPdn7-12" target="6EcvWxfQoZ9j1ZxBPdn7-1">
          <mxGeometry width="50" height="50" relative="1" as="geometry">
            <mxPoint x="230" y="430" as="sourcePoint" />
            <mxPoint x="260" y="330" as="targetPoint" />
          </mxGeometry>
        </mxCell>
        <mxCell id="6EcvWxfQoZ9j1ZxBPdn7-33" value="" style="endArrow=none;html=1;rounded=0;entryX=0;entryY=1;entryDx=0;entryDy=0;entryPerimeter=0;" edge="1" parent="1" source="6EcvWxfQoZ9j1ZxBPdn7-27" target="6EcvWxfQoZ9j1ZxBPdn7-1">
          <mxGeometry width="50" height="50" relative="1" as="geometry">
            <mxPoint x="210" y="440" as="sourcePoint" />
            <mxPoint x="260" y="390" as="targetPoint" />
          </mxGeometry>
        </mxCell>
        <mxCell id="6EcvWxfQoZ9j1ZxBPdn7-34" value="" style="endArrow=none;html=1;rounded=0;entryX=-0.005;entryY=0.605;entryDx=0;entryDy=0;entryPerimeter=0;" edge="1" parent="1" source="6EcvWxfQoZ9j1ZxBPdn7-1" target="6EcvWxfQoZ9j1ZxBPdn7-11">
          <mxGeometry width="50" height="50" relative="1" as="geometry">
            <mxPoint x="320" y="410" as="sourcePoint" />
            <mxPoint x="370" y="360" as="targetPoint" />
          </mxGeometry>
        </mxCell>
        <mxCell id="6EcvWxfQoZ9j1ZxBPdn7-35" value="" style="endArrow=none;html=1;rounded=0;entryX=0;entryY=0.5;entryDx=0;entryDy=0;" edge="1" parent="1" source="6EcvWxfQoZ9j1ZxBPdn7-1" target="6EcvWxfQoZ9j1ZxBPdn7-16">
          <mxGeometry width="50" height="50" relative="1" as="geometry">
            <mxPoint x="290" y="420" as="sourcePoint" />
            <mxPoint x="340" y="370" as="targetPoint" />
          </mxGeometry>
        </mxCell>
        <mxCell id="6EcvWxfQoZ9j1ZxBPdn7-36" value="" style="endArrow=none;html=1;rounded=0;entryX=0;entryY=0;entryDx=0;entryDy=0;" edge="1" parent="1" source="6EcvWxfQoZ9j1ZxBPdn7-1" target="6EcvWxfQoZ9j1ZxBPdn7-13">
          <mxGeometry width="50" height="50" relative="1" as="geometry">
            <mxPoint x="340" y="500" as="sourcePoint" />
            <mxPoint x="390" y="450" as="targetPoint" />
          </mxGeometry>
        </mxCell>
        <mxCell id="6EcvWxfQoZ9j1ZxBPdn7-37" value="" style="endArrow=none;html=1;rounded=0;" edge="1" parent="1" source="6EcvWxfQoZ9j1ZxBPdn7-16" target="6EcvWxfQoZ9j1ZxBPdn7-6">
          <mxGeometry width="50" height="50" relative="1" as="geometry">
            <mxPoint x="350" y="350" as="sourcePoint" />
            <mxPoint x="400" y="300" as="targetPoint" />
          </mxGeometry>
        </mxCell>
        <mxCell id="6EcvWxfQoZ9j1ZxBPdn7-38" value="" style="endArrow=none;html=1;rounded=0;entryX=0.995;entryY=0.402;entryDx=0;entryDy=0;entryPerimeter=0;" edge="1" parent="1" source="6EcvWxfQoZ9j1ZxBPdn7-6" target="6EcvWxfQoZ9j1ZxBPdn7-13">
          <mxGeometry width="50" height="50" relative="1" as="geometry">
            <mxPoint x="350" y="350" as="sourcePoint" />
            <mxPoint x="400" y="300" as="targetPoint" />
          </mxGeometry>
        </mxCell>
        <mxCell id="6EcvWxfQoZ9j1ZxBPdn7-39" value="" style="endArrow=none;html=1;rounded=0;entryX=0.5;entryY=1;entryDx=0;entryDy=0;exitX=0.5;exitY=0;exitDx=0;exitDy=0;exitPerimeter=0;" edge="1" parent="1" source="6EcvWxfQoZ9j1ZxBPdn7-6" target="6EcvWxfQoZ9j1ZxBPdn7-29">
          <mxGeometry width="50" height="50" relative="1" as="geometry">
            <mxPoint x="350" y="350" as="sourcePoint" />
            <mxPoint x="400" y="300" as="targetPoint" />
          </mxGeometry>
        </mxCell>
      </root>
    </mxGraphModel>
  </diagram>
</mxfile>
